<svg xmlns="http://www.w3.org/2000/svg" xmlns:xlink="http://www.w3.org/1999/xlink" width="500" zoomAndPan="magnify" viewBox="0 0 375 374.999991" height="500" preserveAspectRatio="xMidYMid meet" version="1.0"><defs><clipPath id="edb3b541b3"><path d="M 27.085938 147 L 348 147 L 348 268 L 27.085938 268 Z M 27.085938 147 " clip-rule="nonzero"/></clipPath></defs><path fill="#e14356" d="M 58.347656 123.65625 C 62.324219 90.285156 84.84375 77.914062 116 72.503906 C 149.691406 66.652344 170.222656 77.535156 191.214844 103.769531 C 204.410156 75.714844 229.183594 63.601562 251.125 56.273438 C 301.984375 39.28125 333.609375 93.515625 327.929688 138.023438 C 321.402344 189.171875 299.117188 241.933594 264.980469 279.289062 C 245.234375 300.902344 221.359375 331.648438 200.46875 333.59375 C 179.582031 335.539062 44.578125 239.199219 58.347656 123.65625 Z M 58.347656 123.65625 " fill-opacity="1" fill-rule="nonzero"/><path fill="#b83946" d="M 312.644531 116.449219 C 312.601562 116.152344 312.53125 115.851562 312.398438 115.535156 C 303.429688 94.390625 290.160156 76.21875 266.15625 72.355469 C 255.535156 70.644531 242.574219 72.308594 234.394531 79.898438 C 225.628906 88.035156 236.339844 95.011719 243.882812 97.324219 C 254.636719 100.617188 266.175781 102.289062 275.507812 108.972656 C 286.15625 116.605469 287.996094 127.894531 293.5 138.835938 C 297.621094 147.019531 309.359375 149.117188 313.832031 139.824219 C 317.625 131.9375 314.660156 124.363281 312.644531 116.449219 Z M 312.644531 116.449219 " fill-opacity="1" fill-rule="nonzero"/><path fill="#b83946" d="M 298.066406 160.429688 C 297.222656 159.167969 295.839844 158.210938 293.964844 157.847656 C 291.316406 157.335938 288.523438 157.90625 286.207031 159.265625 C 285.800781 159.445312 285.425781 159.691406 285.109375 159.996094 C 284.449219 160.492188 283.832031 161.046875 283.308594 161.683594 C 277.746094 168.394531 284.46875 178.902344 292.808594 175.613281 C 298.679688 173.292969 304.988281 164.699219 298.066406 160.429688 Z M 298.066406 160.429688 " fill-opacity="1" fill-rule="nonzero"/><g clip-path="url(#edb3b541b3)"><path fill="#ecacb7" d="M 169.230469 267.707031 C 168.191406 267.707031 167.195312 267.28125 166.425781 266.507812 C 162.941406 263.011719 162.445312 248.011719 162.640625 201.628906 C 162.691406 188.589844 162.757812 173.488281 162.394531 163.546875 C 159.933594 173.3125 156.8125 188.363281 154.117188 201.347656 C 143.097656 254.507812 141.054688 259.523438 136.371094 259.523438 C 131.203125 259.523438 129.214844 251.753906 123.601562 221.136719 C 121.796875 211.289062 119.4375 198.40625 117.644531 193.019531 C 116.964844 194.589844 116.28125 196.875 115.808594 198.460938 C 114.464844 202.964844 113.078125 207.621094 110.074219 209.96875 C 107.417969 212.046875 101.859375 211.589844 93.683594 210.664062 C 91.804688 210.449219 90.027344 210.246094 89.105469 210.226562 C 76.824219 209.949219 64.074219 210.898438 51.738281 211.8125 C 44.910156 212.316406 37.847656 212.839844 30.96875 213.148438 C 29.195312 213.199219 27.707031 211.859375 27.628906 210.09375 C 27.550781 208.328125 28.914062 206.832031 30.683594 206.753906 C 37.46875 206.449219 44.480469 205.929688 51.265625 205.429688 C 63.753906 204.503906 76.667969 203.550781 89.246094 203.824219 C 90.460938 203.851562 92.292969 204.0625 94.410156 204.300781 C 97.441406 204.644531 104.464844 205.445312 106.246094 204.828125 C 107.589844 203.605469 108.789062 199.589844 109.671875 196.632812 C 111.375 190.933594 113.132812 185.039062 118.328125 185.039062 C 123.054688 185.039062 124.632812 191.210938 129.90625 219.980469 C 131.699219 229.773438 134.21875 243.515625 136.289062 250.113281 C 139.371094 240.9375 144.175781 217.765625 147.847656 200.050781 C 157.914062 151.496094 159.347656 147.960938 163.699219 147.960938 C 164.660156 147.960938 165.570312 148.347656 166.273438 149.046875 C 168.777344 151.5625 169.21875 159.921875 169.046875 201.652344 C 168.976562 218.449219 168.882812 241.664062 169.816406 254.050781 C 171.222656 245.742188 172.480469 232.660156 173.488281 222.191406 C 177.003906 185.691406 178.40625 177.160156 184.152344 177.160156 C 188.742188 177.160156 191.6875 181.9375 193.894531 188.316406 C 195.242188 156.726562 197.839844 152.761719 202.351562 152.761719 C 208.207031 152.761719 209.03125 161.265625 210.328125 180.503906 C 210.707031 186.082031 211.09375 191.820312 211.691406 196.234375 C 212.859375 196.226562 214.027344 196.226562 215.179688 196.226562 C 220.925781 196.226562 226.84375 196.226562 232.042969 194.925781 C 232.347656 192.011719 232.152344 187.914062 231.960938 183.929688 C 231.566406 175.746094 231.226562 168.679688 234.351562 165.40625 C 235.457031 164.242188 236.898438 163.628906 238.511719 163.628906 C 244.167969 163.628906 245.828125 171.894531 249.929688 204.464844 C 251.140625 214.050781 252.679688 226.28125 254.199219 232.933594 C 256.199219 224.242188 257.988281 205.839844 259.050781 194.925781 C 259.636719 188.890625 260.144531 183.675781 260.628906 179.792969 C 261.328125 174.167969 261.753906 170.773438 265.15625 170.773438 C 268.132812 170.773438 269.144531 173.308594 272.144531 180.824219 C 273.808594 185.007812 278.871094 197.699219 281.648438 198.308594 C 292.695312 198.109375 301.65625 196.9375 310.324219 195.800781 C 320.480469 194.472656 330.984375 193.097656 344.542969 193.359375 C 346.3125 193.394531 347.71875 194.855469 347.683594 196.621094 C 347.648438 198.390625 346.167969 199.8125 344.417969 199.757812 C 331.339844 199.503906 321.535156 200.789062 311.15625 202.148438 C 302.269531 203.3125 293.082031 204.515625 281.601562 204.710938 C 281.546875 204.710938 281.496094 204.710938 281.441406 204.710938 C 275.347656 204.507812 271.222656 195.742188 266.570312 184.148438 C 266.195312 187.625 265.796875 191.699219 265.425781 195.542969 C 261.570312 235.203125 259.671875 243.226562 254.128906 243.226562 C 248.890625 243.226562 247.453125 236.03125 243.574219 205.265625 C 242.199219 194.34375 240.238281 178.789062 238.300781 172.265625 C 237.960938 175.308594 238.199219 180.277344 238.359375 183.621094 C 238.628906 189.195312 238.882812 194.460938 237.984375 198.195312 C 237.722656 199.277344 236.917969 200.144531 235.859375 200.488281 C 229.28125 202.628906 222.109375 202.636719 215.183594 202.625 C 213.054688 202.628906 211.042969 202.625 209.058594 202.683594 C 207.464844 202.707031 206.101562 201.617188 205.8125 200.066406 C 204.898438 195.113281 204.410156 187.90625 203.941406 180.933594 C 203.578125 175.554688 203.089844 168.347656 202.34375 163.53125 C 200.382812 174.78125 199.851562 200.527344 199.65625 210.140625 L 199.640625 210.910156 C 199.605469 212.46875 198.457031 213.777344 196.914062 214.007812 C 195.371094 214.25 193.882812 213.328125 193.394531 211.847656 C 192.773438 209.960938 192.140625 207.183594 191.40625 203.96875 C 190.425781 199.660156 187.652344 187.492188 185.039062 184.289062 C 183.03125 189.953125 181.222656 208.726562 179.871094 222.804688 C 176.359375 259.199219 174.957031 267.707031 169.230469 267.707031 Z M 169.230469 267.707031 " fill-opacity="1" fill-rule="nonzero"/></g></svg>