<svg width="20" height="20" viewBox="0 0 20 20" fill="none" xmlns="http://www.w3.org/2000/svg">
<path fill-rule="evenodd" clip-rule="evenodd" d="M10 16.5C14.897 16.5 19 14.192 19 11C19 7.808 14.897 5.5 10 5.5C5.103 5.5 1 7.808 1 11C1 14.192 5.103 16.5 10 16.5ZM10 7.5C13.94 7.5 17 9.222 17 11C17 12.778 13.94 14.5 10 14.5C6.06 14.5 3 12.778 3 11C3 9.222 6.06 7.5 10 7.5Z" fill="#C8C8C8"/>
<path d="M9.00003 3.5C9.00003 3.23478 9.10539 2.98043 9.29293 2.79289C9.48046 2.60536 9.73482 2.5 10 2.5C10.2652 2.5 10.5196 2.60536 10.7071 2.79289C10.8947 2.98043 11 3.23478 11 3.5V6.5C11 6.76522 10.8947 7.01957 10.7071 7.20711C10.5196 7.39464 10.2652 7.5 10 7.5C9.73482 7.5 9.48046 7.39464 9.29293 7.20711C9.10539 7.01957 9.00003 6.76522 9.00003 6.5V3.5ZM13.02 3.804C13.0796 3.55168 13.2348 3.33235 13.453 3.19227C13.6711 3.05219 13.9352 3.00232 14.1894 3.05316C14.4436 3.10401 14.6682 3.2516 14.8157 3.46481C14.9632 3.67802 15.0221 3.94018 14.98 4.196L14.48 6.696C14.4205 6.94832 14.2652 7.16765 14.0471 7.30773C13.8289 7.44781 13.5649 7.49768 13.3107 7.44684C13.0564 7.396 12.8319 7.2484 12.6844 7.03519C12.5369 6.82198 12.478 6.55982 12.52 6.304L13.02 3.804ZM6.98003 3.804C6.92047 3.55168 6.76524 3.33235 6.54708 3.19227C6.32892 3.05219 6.06489 3.00232 5.81066 3.05316C5.55644 3.10401 5.3319 3.2516 5.1844 3.46481C5.0369 3.67802 4.97796 3.94018 5.02003 4.196L5.52003 6.696C5.57959 6.94832 5.73482 7.16765 5.95298 7.30773C6.17114 7.44781 6.43518 7.49768 6.6894 7.44684C6.94362 7.396 7.16816 7.2484 7.31567 7.03519C7.46317 6.82198 7.5221 6.55982 7.48003 6.304L6.98003 3.804ZM2.85703 4.986C2.79154 4.86937 2.70331 4.76706 2.59757 4.68514C2.49183 4.60322 2.37073 4.54334 2.24144 4.50905C2.11214 4.47476 1.97728 4.46676 1.84484 4.48553C1.7124 4.50429 1.58507 4.54943 1.47039 4.61828C1.35571 4.68713 1.256 4.77829 1.17718 4.88636C1.09836 4.99443 1.04202 5.11721 1.01149 5.24745C0.980968 5.37768 0.976882 5.51271 0.999477 5.64455C1.02207 5.77639 1.07089 5.90236 1.14303 6.015L2.64303 8.515C2.70939 8.63008 2.79801 8.73079 2.90372 8.81124C3.00943 8.89169 3.13011 8.95027 3.25871 8.98356C3.38731 9.01685 3.52126 9.02419 3.65273 9.00514C3.7842 8.98609 3.91055 8.94104 4.02442 8.87262C4.13828 8.80419 4.23737 8.71377 4.3159 8.60662C4.39443 8.49948 4.45082 8.37776 4.48178 8.24858C4.51275 8.11939 4.51767 7.98534 4.49625 7.85423C4.47483 7.72313 4.4275 7.59761 4.35703 7.485L2.85703 4.986ZM17.143 4.986C17.2795 4.75858 17.5007 4.59467 17.758 4.53035C18.0153 4.46602 18.2876 4.50655 18.515 4.643C18.7425 4.77945 18.9064 5.00066 18.9707 5.25796C19.035 5.51526 18.9945 5.78758 18.858 6.015L17.358 8.515C17.2214 8.74256 17.0001 8.90653 16.7426 8.97086C16.4851 9.03518 16.2126 8.99459 15.985 8.858C15.7575 8.72141 15.5935 8.50002 15.5292 8.24254C15.4648 7.98505 15.5054 7.71256 15.642 7.485L17.143 4.986Z" fill="#C8C8C8"/>
<path fill-rule="evenodd" clip-rule="evenodd" d="M10 14C10.9283 14 11.8185 13.6313 12.4749 12.9749C13.1313 12.3185 13.5 11.4283 13.5 10.5C13.5 9.57174 13.1313 8.6815 12.4749 8.02513C11.8185 7.36875 10.9283 7 10 7C9.07174 7 8.1815 7.36875 7.52513 8.02513C6.86875 8.6815 6.5 9.57174 6.5 10.5C6.5 11.4283 6.86875 12.3185 7.52513 12.9749C8.1815 13.6313 9.07174 14 10 14ZM10 9C10.3978 9 10.7794 9.15804 11.0607 9.43934C11.342 9.72064 11.5 10.1022 11.5 10.5C11.5 10.8978 11.342 11.2794 11.0607 11.5607C10.7794 11.842 10.3978 12 10 12C9.60218 12 9.22064 11.842 8.93934 11.5607C8.65804 11.2794 8.5 10.8978 8.5 10.5C8.5 10.1022 8.65804 9.72064 8.93934 9.43934C9.22064 9.15804 9.60218 9 10 9Z" fill="#C8C8C8"/>
</svg>
