<svg width="16" height="9" viewBox="0 0 16 9" fill="none" xmlns="http://www.w3.org/2000/svg">
<path d="M0.0460112 1.18582C0.00821666 1.07156 -0.00652992 0.950787 0.00264581 0.830655C0.0118215 0.710523 0.0447329 0.593479 0.0994282 0.486462C0.154124 0.379445 0.229489 0.284635 0.321057 0.207653C0.412625 0.130671 0.518531 0.073083 0.632495 0.0383055C0.746459 0.00352791 0.866162 -0.00773172 0.984505 0.00519365C1.10285 0.018119 1.21742 0.0549663 1.32144 0.113551C1.42545 0.172136 1.51678 0.251266 1.59002 0.346248C1.66326 0.441231 1.71691 0.550132 1.7478 0.666496C3.60251 6.95415 12.4013 6.95505 14.2578 0.670096C14.2911 0.556748 14.3461 0.451144 14.4197 0.359314C14.4933 0.267485 14.584 0.191228 14.6867 0.134897C14.7894 0.0785669 14.9021 0.0432666 15.0183 0.0310113C15.1345 0.018756 15.2519 0.0297858 15.3639 0.0634712C15.4758 0.0971566 15.5802 0.152838 15.6709 0.227336C15.7616 0.301834 15.8369 0.393689 15.8926 0.497658C15.9482 0.601627 15.9831 0.715672 15.9952 0.833283C16.0073 0.950895 15.9964 1.06977 15.9631 1.18312C15.6396 2.30923 15.091 3.35603 14.3512 4.25854L15.4848 5.40699C15.6468 5.57674 15.7364 5.80409 15.7343 6.04008C15.7323 6.27606 15.6388 6.5018 15.474 6.66868C15.3091 6.83555 15.0861 6.93021 14.853 6.93226C14.6199 6.93431 14.3953 6.84359 14.2276 6.67964L13.0619 5.49969C12.4328 5.97987 11.7379 6.36463 10.9992 6.64184L11.3166 7.84339C11.3504 7.95864 11.3611 8.07959 11.3481 8.19909C11.335 8.3186 11.2984 8.43425 11.2404 8.5392C11.1824 8.64414 11.1043 8.73627 11.0106 8.81014C10.9168 8.884 10.8094 8.93811 10.6947 8.96926C10.58 9.00042 10.4603 9.00799 10.3426 8.99152C10.2249 8.97506 10.1117 8.93489 10.0096 8.8734C9.90757 8.81191 9.8187 8.73034 9.74828 8.63351C9.67787 8.53667 9.62734 8.42654 9.59967 8.30961L9.27603 7.08826C8.43402 7.21426 7.57335 7.21426 6.73135 7.08826L6.40771 8.30961C6.38004 8.42654 6.32951 8.53667 6.25909 8.63351C6.18868 8.73034 6.09981 8.81191 5.99774 8.8734C5.89566 8.93489 5.78245 8.97506 5.66479 8.99152C5.54712 9.00799 5.4274 9.00042 5.31267 8.96926C5.19794 8.93811 5.09055 8.884 4.99682 8.81014C4.9031 8.73627 4.82494 8.64414 4.76698 8.5392C4.70901 8.43425 4.6724 8.3186 4.65932 8.19909C4.64624 8.07959 4.65694 7.95864 4.6908 7.84339L5.00822 6.64184C4.26941 6.36433 3.57451 5.97927 2.94545 5.49879L1.7807 6.67964C1.61398 6.84864 1.38777 6.94368 1.15182 6.94385C0.915881 6.94402 0.689537 6.8493 0.522583 6.68054C0.355629 6.51178 0.261741 6.28279 0.261574 6.04395C0.261408 5.80511 0.354975 5.57599 0.521694 5.40699L1.65533 4.25944C0.958254 3.41701 0.401662 2.39277 0.0442331 1.18672L0.0460112 1.18582Z" fill="#C8C8C8"/>
</svg>
